<svg width="229" height="238" viewBox="0 0 229 238" fill="none" xmlns="http://www.w3.org/2000/svg">
<g clip-path="url(#clip0_5560_31012)">
<path d="M48.879 206.845C45.7486 203.205 40.8902 201.734 36.3901 202.766C36.3476 202.504 36.316 202.244 36.2913 201.984C37.8325 202.126 39.4492 201.898 40.9191 201.546C41.829 201.327 42.7265 201.029 43.5774 200.638C44.2073 200.348 44.8977 199.945 45.0445 199.206C45.4741 197.046 42.3917 197.451 41.2141 197.66C39.5 197.964 37.8009 198.54 36.2981 199.435C36.3352 199.059 36.3874 198.679 36.4532 198.292C36.6001 197.424 35.3759 197.203 35.133 198.024C34.8695 198.916 34.7473 199.876 34.7514 200.84C34.6664 201.035 34.6732 201.278 34.772 201.476C34.8063 202.045 34.8832 202.614 34.9998 203.167C34.2972 203.416 33.6096 203.729 32.944 204.108C28.0692 206.888 25.3669 213.398 28.0582 218.593C29.4649 221.308 32.2152 223.227 35.1837 223.845C36.9651 224.217 38.8069 224.113 40.5458 223.624C42.3999 223.406 44.2128 222.705 45.7925 221.744C48.1599 220.303 50.213 218.117 51.0337 215.425C51.9505 212.417 50.8773 209.17 48.8777 206.844L48.879 206.845ZM49.111 213.957C49.0904 214.229 48.9765 214.513 48.8914 214.771C48.7953 215.064 48.6896 215.352 48.5881 215.642C48.4769 215.962 48.057 216.07 47.7701 215.977C47.4709 215.88 47.239 215.532 47.3255 215.212C47.3996 214.94 47.4655 214.668 47.5464 214.398C47.6315 214.116 47.7056 213.783 47.8538 213.529C48.0254 213.232 48.3383 213.088 48.6677 213.195C49.0108 213.306 49.1343 213.623 49.1096 213.956L49.111 213.957ZM47.7262 210.924C46.2838 208.086 43.7503 206.16 40.4963 206.063C39.629 206.036 39.5178 204.727 40.414 204.694C43.9631 204.561 47.7509 206.912 48.923 210.326C49.1645 211.027 48.0775 211.613 47.7262 210.924Z" fill="#BF3A63"/>
<path d="M89.2854 218.768C89.7616 218.143 90.2392 217.517 90.7182 216.892C91.9218 218.784 93.3999 220.602 95.1168 222.057C94.2288 223.102 93.3381 224.147 92.4392 225.184C92.9923 226.119 93.544 227.054 94.0847 227.991C95.9361 231.201 97.7916 234.41 99.6498 237.616C99.8722 238 100.368 238.102 100.746 237.897C104.766 235.71 108.789 233.528 112.804 231.336C114.439 230.549 116.135 229.874 117.697 228.948C118.649 228.384 118.503 227.601 118.338 227.251C115.925 222.129 113.182 217.141 110.596 212.104C109.738 210.433 108.881 208.763 108.023 207.094C107.441 207.772 106.859 208.449 106.274 209.124C105.171 207.205 103.705 205.427 102.152 203.886C103.004 202.806 103.858 201.728 104.715 200.652C104.085 199.426 103.457 198.198 102.826 196.972C101.354 194.111 99.9724 191.177 98.3708 188.386C98.1141 187.94 97.6722 187.926 97.3538 188.135C97.2207 188.131 97.0779 188.169 96.9325 188.266C94.1904 190.103 91.3715 191.827 88.4715 193.404C85.5634 194.986 82.5619 196.324 79.566 197.725C79.2476 197.873 79.146 198.182 79.1886 198.481C79.0252 198.709 78.9607 199.012 79.1007 199.328C82.0789 206.054 85.3658 212.642 88.9491 219.064C88.9642 219.093 88.9793 219.121 88.9944 219.148C89.0919 219.022 89.1879 218.895 89.284 218.769L89.2854 218.768ZM103.521 233.521C103.955 234.386 102.754 235.113 102.223 234.29C101.22 232.739 100.309 231.097 99.4536 229.46C98.9993 228.593 100.245 227.844 100.767 228.682C101.743 230.25 102.695 231.868 103.523 233.52L103.521 233.521ZM91.3166 214.704C90.8211 213.196 90.6345 211.586 90.8101 209.984C91.0023 208.226 91.6267 206.389 92.9552 205.159C94.2288 203.978 95.9265 203.546 97.6269 203.771C98.9746 203.95 100.118 204.474 101.1 205.218C101.106 205.211 101.113 205.203 101.118 205.196C102.713 206.796 103.95 208.572 105.119 210.457C105.112 210.464 105.107 210.472 105.1 210.479C106.6 213.709 107.275 217.527 104.796 220.399C102.481 223.082 98.9362 222.508 96.2092 220.868C94.5156 219.252 93.0019 217.542 91.7763 215.508C91.6157 215.242 91.4634 214.974 91.3166 214.704ZM97.9233 224.062C98.2568 224.516 98.5629 225.022 98.8099 225.527C99.245 226.416 98.0606 227.117 97.491 226.308C97.1671 225.847 96.8707 225.336 96.6333 224.825C96.2257 223.947 97.3497 223.282 97.9233 224.061V224.062Z" fill="#BF3A63"/>
<path d="M168.556 141.898C165.738 136.307 161.061 131.632 155.624 128.569C152.567 126.848 149.213 125.582 145.748 125.004C145.281 124.926 144.933 125.2 144.787 125.543C144.743 125.532 144.698 125.521 144.654 125.51C144.153 125.39 143.791 125.686 143.66 126.061C143.452 126.023 144.988 126.793 144.779 126.761C143.744 126.605 141.529 127.269 142.593 127.569C145.358 128.347 148.023 129.171 150.575 130.519C153.088 131.847 155.447 133.478 157.522 135.423C161.854 139.487 164.971 144.715 166.514 150.451C166.952 152.078 167.273 153.741 167.443 155.417C167.529 156.263 167.582 157.112 167.601 157.961C167.62 158.846 167.527 159.749 167.631 160.625C167.708 161.269 168.376 161.659 168.895 161.519C169.058 162.445 170.259 162.518 170.75 161.83C171.203 161.874 171.675 161.67 171.75 161.155C172.692 154.592 171.538 147.814 168.556 141.898Z" fill="#BF3A63"/>
<path d="M111.081 79.013C110.813 78.4528 110.401 78.019 109.892 77.7471C109.892 77.7252 109.892 77.7032 109.892 77.6826C109.891 76.6378 108.346 76.6254 108.249 77.6263C108.094 77.7471 107.975 77.9105 107.946 78.0849C107.556 80.445 107.021 82.768 106.342 85.0416C103.637 91.7965 99.8695 98.0832 95.051 103.557C94.6585 104.003 94.6942 104.705 95.2404 105.023C97.3539 106.258 99.2409 104.484 100.53 102.95C100.983 102.411 101.42 101.859 101.846 101.297C106.861 96.2984 109.206 89.0945 111.097 82.3822C111.407 81.2825 111.591 80.0839 111.081 79.0144V79.013Z" fill="#BF3A63"/>
<path d="M30.7768 9.07517C26.5347 7.36448 21.7464 7.59651 17.3574 8.57267C13.0741 9.5255 8.9212 11.4078 5.76602 14.5148C2.57517 17.6588 0.719668 21.9397 0.800641 26.4402C0.867889 30.2117 2.33088 33.9145 4.85063 36.7126C9.03648 42.9636 16.1799 47.0234 23.8709 46.5538C32.5733 46.0225 40.0269 39.4777 41.1331 30.7361C42.1596 22.6206 38.9248 12.3606 30.7782 9.07517H30.7768ZM31.577 21.8381C31.4603 22.6907 30.582 23.2893 29.9891 23.8233C28.4739 25.1867 26.9176 26.5033 25.3256 27.7761C26.768 29.7243 28.1418 31.7329 29.3482 33.8101C29.7791 34.5529 30.1098 35.3863 29.9136 36.2567C29.7613 36.9377 29.2864 37.5693 28.6098 37.7944C26.8065 38.3944 25.6234 36.3171 24.7163 35.1433C23.6019 33.7017 22.4916 32.2573 21.3813 30.813C19.5039 32.1956 17.5715 33.5108 15.5746 34.6724C14.8322 35.1035 13.9991 35.4343 13.129 35.238C12.4483 35.0856 11.817 34.6106 11.5919 33.9337C10.9922 32.1297 13.0686 30.9462 14.242 30.0387C15.609 28.9815 16.9786 27.9271 18.3483 26.874C18.0381 26.4731 17.7293 26.0722 17.4192 25.6713C16.7906 24.8585 16.1607 24.0471 15.5321 23.2344C15.2343 22.8486 14.9104 22.4696 14.6332 22.0632C14.6057 22.0289 14.5824 21.9932 14.5604 21.9548C14.3971 21.7063 14.253 21.4468 14.1418 21.1708C14.1377 21.1612 14.1364 21.153 14.1322 21.1434C13.5682 20.1631 13.6739 18.8876 14.6469 18.1462C15.2631 17.6767 15.9177 17.6108 16.5175 17.8016C17.3698 17.9183 17.9681 18.797 18.502 19.3901C19.803 20.8372 21.0629 22.3241 22.2816 23.8426C22.7578 23.4746 23.2341 23.108 23.7089 22.7387C24.5214 22.1099 25.3325 21.4797 26.145 20.8509C26.5306 20.553 26.9094 20.229 27.3156 19.9516C27.3499 19.9242 27.3856 19.9008 27.424 19.8789C27.6724 19.7155 27.9318 19.5713 28.2077 19.4601C28.2173 19.456 28.2255 19.4546 28.2351 19.4505C29.215 18.8862 30.49 18.992 31.2311 19.9654C31.7005 20.5818 31.7663 21.2367 31.5756 21.8367L31.577 21.8381Z" fill="#BF3A63"/>
<path d="M220.161 139.276C216.662 139.276 213.815 136.428 213.815 132.927C213.815 129.426 216.662 126.579 220.161 126.579C223.661 126.579 226.507 129.426 226.507 132.927C226.507 136.428 223.661 139.276 220.161 139.276ZM220.161 129.411C218.223 129.411 216.646 130.989 216.646 132.927C216.646 134.866 218.223 136.443 220.161 136.443C222.099 136.443 223.676 134.866 223.676 132.927C223.676 130.989 222.099 129.411 220.161 129.411Z" fill="#BF3A63"/>
<path d="M76.8678 214.027C77.0325 211.926 77.156 208.57 74.3055 208.288C71.4262 208.004 69.9385 211.056 68.9174 213.236C67.6754 215.889 66.8231 218.738 66.3936 221.634C66.1767 223.097 66.0738 224.574 66.0669 226.053C66.0614 227.41 66.0052 228.993 66.41 230.305C66.6598 231.113 67.2939 231.568 68.0061 231.646C69.1356 232.118 70.3845 231.529 71.1572 230.667C72.0932 229.622 72.7314 228.199 73.3407 226.949C73.9995 225.598 74.5704 224.205 75.0507 222.78C76.0087 219.949 76.6318 217.008 76.8664 214.027H76.8678Z" fill="#FCE4D9"/>
<path d="M25.0222 171.924C23.8323 170.186 21.819 167.497 19.4255 169.069C17.0059 170.657 17.7649 173.966 18.3385 176.304C19.0371 179.147 20.1638 181.9 21.6474 184.424C22.3968 185.698 23.2435 186.913 24.1672 188.066C25.0153 189.126 25.9664 190.393 27.1027 191.159C27.8054 191.632 28.5836 191.586 29.1874 191.2C30.3622 190.857 30.9647 189.615 31.0251 188.46C31.0978 187.06 30.6998 185.549 30.3897 184.194C30.0534 182.729 29.6225 181.286 29.1037 179.875C28.0717 177.07 26.7102 174.39 25.0222 171.924Z" fill="#FCE4D9"/>
<path d="M63.4773 189.589C61.8317 188.275 59.1212 186.291 57.2904 188.494C55.4404 190.721 57.1326 193.663 58.365 195.731C59.8637 198.246 61.7453 200.55 63.9013 202.53C64.9897 203.529 66.1548 204.444 67.3749 205.277C68.4962 206.043 69.7753 206.977 71.0859 207.376C71.8956 207.624 72.6271 207.352 73.091 206.807C74.1148 206.135 74.3276 204.771 74.0476 203.649C73.7072 202.288 72.8865 200.961 72.1935 199.755C71.4441 198.452 70.6097 197.197 69.7012 196C67.8951 193.62 65.8104 191.454 63.4745 189.589H63.4773Z" fill="#FCE4D9"/>
<path d="M36.3626 187.844C34.3479 188.455 31.1762 189.563 31.953 192.321C32.738 195.108 36.1197 195.382 38.5214 195.54C41.4432 195.731 44.4049 195.488 47.2581 194.835C48.6992 194.504 50.1114 194.063 51.4907 193.53C52.7574 193.042 54.2519 192.517 55.3238 191.663C55.9853 191.136 56.1774 190.379 55.9922 189.687C56.0196 188.463 55.0164 187.514 53.9349 187.108C52.6215 186.616 51.0638 186.539 49.6777 186.427C48.1804 186.305 46.6749 186.281 45.1735 186.351C42.1898 186.49 39.224 186.979 36.3639 187.845L36.3626 187.844Z" fill="#FCE4D9"/>
<path d="M96.6263 106.438C95.6725 105.383 94.0146 105.331 92.7122 105.106C91.1189 104.83 89.5255 104.562 87.9307 104.296C87.8264 104.278 87.7235 104.272 87.6206 104.277C87.2871 104.138 86.8877 104.205 86.6709 104.628C86.0629 105.816 85.5386 107.05 85.1228 108.319C84.7536 109.444 84.3584 110.642 84.5752 111.837C84.9526 113.915 87.2157 114.758 89.1508 115.288C89.4431 115.629 89.9262 115.753 90.3297 115.595C91.4825 115.892 92.752 116.217 93.935 115.969C95.1441 115.716 95.8866 114.788 96.3217 113.692C96.8102 112.463 97.0998 111.139 97.2851 109.831C97.4512 108.663 97.4731 107.368 96.6291 106.436L96.6263 106.438Z" fill="#FCE4D9"/>
<path d="M159.702 93.8916C159.571 94.0069 159.438 94.1222 159.307 94.2376C159.06 94.1785 158.791 94.2225 158.583 94.4284C155.311 97.659 151.705 100.468 147.375 102.136C143.18 103.752 137.597 105.054 133.923 101.636C131.921 99.7747 131.074 97.0727 131.405 94.3845C131.514 93.4893 129.984 93.2614 129.803 94.1291C129.463 94.125 129.109 94.2952 128.948 94.6879C127.931 97.1578 128.359 100.041 129.691 102.308C131.123 104.746 133.654 106.355 136.345 107.076C142.297 108.667 148.479 106.149 153.194 102.58C156.07 100.403 158.648 97.9102 160.94 95.1341C161.655 94.2691 160.563 93.1488 159.702 93.8957V93.8916Z" fill="#FCE4D9"/>
<path d="M150.004 58.239C149.231 56.6299 147.157 56.6601 145.657 56.9539C144.271 57.2257 142.267 58.011 141.77 59.4801C141.517 60.2338 141.784 61.0562 142.429 61.5162C142.705 61.7125 143.019 61.8361 143.349 61.9116C144.478 62.7299 146.409 62.2727 147.572 61.8498C149.024 61.3212 150.868 60.043 150.002 58.2403L150.004 58.239Z" fill="#FCE4D9"/>
<path d="M228.168 48.8C226.786 42.7219 221.794 36.2183 215.104 35.9931C211.621 35.8751 208.251 37.2919 205.364 39.1358C202.546 40.9357 200.062 43.3686 198.614 46.4165C197.149 49.5015 196.937 53.0506 198.168 56.2509C199.2 58.9337 201.214 61.2031 203.747 62.55C208.375 65.9329 214.549 66.975 219.933 64.6314C226.025 61.9789 229.657 55.3475 228.168 48.8ZM213.199 58.9515C212.443 59.8192 211.068 59.7327 210.396 58.8074C209.765 57.9355 210.127 56.4816 211.218 56.1782C211.295 56.1562 211.369 56.1466 211.441 56.1452C211.825 56.0052 212.26 56.0134 212.638 56.1946C213.687 56.6985 213.961 58.0769 213.199 58.9515ZM216.567 44.9337C216.454 45.9744 216.25 47.0069 215.957 48.0119C215.402 49.9271 214.081 52.6675 213.582 53.457C213.082 54.2478 211.715 53.9869 211.544 53.0739C211.343 52.0099 210.966 49.8434 210.969 47.7153C210.971 45.8522 211.479 43.8299 212.415 42.2139C212.878 41.4149 213.583 40.7257 214.456 40.6529C215.288 40.5829 215.999 41.1293 216.36 41.9242C216.775 42.8414 216.677 43.9233 216.568 44.9337H216.567Z" fill="#FCE4D9"/>
<path d="M6.84603 99.9298C3.34638 99.9298 0.5 97.0823 0.5 93.5813C0.5 90.0803 3.34638 87.2328 6.84603 87.2328C10.3457 87.2328 13.1921 90.0803 13.1921 93.5813C13.1921 97.0823 10.3457 99.9298 6.84603 99.9298ZM6.84603 90.0652C4.90818 90.0652 3.33128 91.6427 3.33128 93.5813C3.33128 95.5199 4.90818 97.0974 6.84603 97.0974C8.78387 97.0974 10.3608 95.5199 10.3608 93.5813C10.3608 91.6427 8.78387 90.0652 6.84603 90.0652Z" fill="#FCE4D9"/>
<path d="M8.21713 222.932C7.97284 223.923 8.04009 224.936 8.35574 225.867C6.72257 226.259 5.62327 226.257 4.31125 225.013C3.76228 224.493 2.84414 225.391 3.35742 225.957C3.81718 226.462 4.0848 226.632 4.49789 226.867C4.28517 226.849 4.07245 226.826 3.85835 226.793C2.9855 226.658 2.80846 227.982 3.66758 228.145C4.26184 228.258 4.86158 228.315 5.45995 228.322C5.14293 228.411 4.81904 228.487 4.49103 228.553C3.6319 228.723 3.76365 229.974 4.65023 229.912C5.15116 229.876 5.67817 229.78 6.20243 229.631C6.02264 229.847 5.8456 230.066 5.67405 230.285C5.21704 230.869 6.04872 231.782 6.62101 231.244C6.86256 231.017 7.10136 230.782 7.33878 230.546C7.40603 230.78 7.17409 231.032 7.13841 231.641C7.08763 232.507 8.3132 232.696 8.48063 231.83C8.69473 230.729 8.83746 230.428 9.29721 229.4C9.477 228.998 9.68561 228.617 9.91205 228.251C10.0918 228.415 10.2812 228.571 10.483 228.712C12.2987 229.982 14.9694 230.265 16.7823 228.816C18.3963 227.526 18.8574 225.278 18.399 223.329C18.5253 223.334 18.6529 223.345 18.7806 223.364C19.685 223.502 20.3081 223.941 21.0313 224.456C21.6352 224.887 22.4682 224.133 21.9824 223.514C21.9755 223.506 21.9687 223.498 21.9618 223.489C22.1581 223.555 22.3557 223.623 22.5561 223.691C23.2286 223.926 23.9257 222.944 23.2286 222.534C22.8539 222.313 22.4518 222.126 22.0304 221.974C22.5698 221.919 23.1119 221.882 23.6567 221.853C24.428 221.812 24.4541 220.543 23.6732 220.489C23.3164 220.465 22.9541 220.458 22.5904 220.466C22.8937 220.288 23.1915 220.106 23.4797 219.92C24.1247 219.504 23.5072 218.377 22.8127 218.729C22.4257 218.926 22.0414 219.126 21.6571 219.325C21.8795 218.998 22.0757 218.659 22.239 218.309C22.5616 217.619 21.5405 217.03 21.0862 217.639C20.7253 218.124 20.3781 218.593 20.002 219.036C20.1996 218.407 20.3012 217.759 20.2792 217.119C20.2518 216.339 19.1237 216.413 18.9809 217.104C18.9096 217.45 18.8396 217.786 18.7559 218.118C18.7243 217.691 18.5775 217.291 18.2193 216.961C17.6991 216.483 17.0747 217.166 17.2256 217.709C17.4425 218.495 17.205 219.401 16.8633 220.262C15.7462 219.155 14.0938 218.621 12.5114 218.847C10.354 219.155 8.72629 220.862 8.21575 222.935L8.21713 222.932ZM15.2796 220.805C15.3619 220.813 15.4429 220.829 15.5238 220.848C15.6185 220.868 15.6954 220.899 15.7832 220.926C15.8217 220.938 15.8615 220.948 15.8985 220.967C16.0522 221.043 16.2018 221.168 16.2595 221.335C16.2965 221.444 16.3102 221.558 16.2993 221.672C16.2855 221.816 16.2046 221.948 16.1044 222.046C16.0454 222.115 15.9726 222.164 15.8862 222.196C15.8299 222.21 15.775 222.224 15.7187 222.237C15.4415 222.25 15.1835 222.197 14.92 222.114C14.7471 222.059 14.6194 221.893 14.5481 221.733C14.4877 221.599 14.4918 221.44 14.5302 221.302C14.6222 220.969 14.9392 220.768 15.2796 220.805ZM12.6404 220.695C13.3856 220.514 13.6423 221.71 12.9616 221.971C11.8952 222.38 11.0237 223.176 10.7575 224.317C10.5585 225.171 9.20663 224.997 9.39465 224.125C9.76109 222.429 10.9441 221.109 12.6418 220.695H12.6404Z" fill="#FCE4D9"/>
<path d="M94.871 149.102C92.9428 147.42 90.9445 145.853 89.1096 144.06C87.2802 142.274 85.5482 140.388 83.8999 138.433C80.4497 134.343 77.3796 129.951 74.4536 125.476C72.756 122.88 71.1695 120.201 69.4114 117.646C68.8569 116.839 67.5875 117.55 68.0829 118.423C69.4622 120.852 71.0075 123.198 72.524 125.543C74.0419 127.891 75.5969 130.217 77.219 132.495C80.2781 136.786 83.5843 140.922 87.309 144.659C89.3347 146.691 91.4894 148.787 93.8774 150.392C94.6445 150.907 95.5764 149.717 94.8724 149.103L94.871 149.102Z" fill="#4D4D4D"/>
<path d="M95.9017 112.12C95.3692 113.405 94.8189 115.094 93.3587 115.588C92.5489 115.863 91.6596 115.579 90.8705 115.363C90.0223 115.131 89.1838 114.869 88.3576 114.57C87.0648 114.1 85.4083 113.551 84.906 112.124C84.3488 110.543 85.1407 108.975 85.8626 107.598C86.3292 106.707 85.0803 105.989 84.5231 106.814C83.4114 108.459 82.6566 110.595 83.303 112.565C83.5953 113.456 84.1319 114.115 84.7976 114.634C83.8286 117.055 82.9434 119.467 81.7439 121.794C80.528 124.155 79.0911 126.375 77.6185 128.583C77.1258 129.322 78.3033 130.258 78.8646 129.546C80.5747 127.376 82.0061 124.998 83.2632 122.541C84.4051 120.308 85.5222 117.921 86.2262 115.492C86.6984 115.717 87.1897 115.915 87.6769 116.1C88.6925 116.489 89.73 116.831 90.784 117.101C90.9885 117.153 91.1944 117.203 91.4016 117.244C90.4972 120.116 89.5049 122.89 88.0543 125.554C86.5076 128.396 84.5972 130.983 82.4672 133.413C81.7975 134.178 82.8693 135.282 83.594 134.54C85.9394 132.14 87.9047 129.348 89.5049 126.403C91.0283 123.599 92.376 120.505 93.0608 117.368C93.4081 117.336 93.7539 117.26 94.0929 117.125C95.9978 116.361 96.905 114.387 97.4896 112.554C97.8204 111.519 96.297 111.169 95.9031 112.116L95.9017 112.12Z" fill="#4D4D4D"/>
<path d="M92.6285 112.288C91.1696 111.998 89.7793 111.636 88.4316 110.989C87.5094 110.547 86.6969 111.891 87.6205 112.377C89.1082 113.16 90.7359 113.709 92.4171 113.847C93.3023 113.92 93.5054 112.462 92.6285 112.288Z" fill="#4D4D4D"/>
<path d="M83.4388 106.188C79.1418 102.665 73.9033 100.059 68.684 98.226C66.0476 97.3006 63.3371 96.5826 60.5868 96.0883C57.7006 95.5693 54.7156 95.1712 51.802 95.6997C49.1066 96.1885 46.3192 97.6891 45.0566 100.221C44.616 101.104 45.8512 101.841 46.3851 100.998C49.3426 96.3299 55.4114 96.8352 60.1462 97.6878C65.3065 98.6173 70.3227 100.322 74.9724 102.746C77.6088 104.12 80.0187 105.772 82.452 107.467C83.2027 107.99 84.1566 106.775 83.4388 106.188Z" fill="#4D4D4D"/>
<path d="M47.0425 119.754C45.3709 117.454 44.0218 115.146 43.6019 112.281C43.1668 109.314 43.8118 106.428 45.0745 103.747C45.5068 102.831 44.2236 102.039 43.6966 102.941C42.0606 105.736 41.5062 109.207 41.9303 112.393C42.3255 115.37 43.6019 118.6 45.8169 120.698C46.4304 121.28 47.5846 120.498 47.0425 119.752V119.754Z" fill="#4D4D4D"/>
<path d="M50.6945 120.517C49.2946 118.622 48.2955 116.53 47.8824 114.2C47.4666 111.847 47.7877 109.595 48.452 107.327C48.699 106.484 47.354 105.866 46.9958 106.714C44.9853 111.464 46.0791 117.619 49.447 121.48C50.0302 122.148 51.2325 121.248 50.6931 120.517H50.6945Z" fill="#4D4D4D"/>
<path d="M160.773 95.7204C158.353 97.6425 155.965 99.6044 153.602 101.597C152.81 102.264 153.941 103.353 154.729 102.724C157.144 100.796 159.535 98.8383 161.893 96.8407C162.679 96.1748 161.556 95.0984 160.773 95.7204Z" fill="#4D4D4D"/>
<path d="M117.304 6.97045C116.559 9.65318 114.982 12.108 112.751 13.7926C111.706 14.5807 110.315 15.5115 108.941 15.3536C107.062 15.1367 107.092 13.1144 107.49 11.7057C107.777 10.6925 106.208 10.2628 105.916 11.2719C105.385 13.1103 105.439 15.3852 107.251 16.5069C108.938 17.5504 110.994 16.8694 112.552 15.933C115.67 14.0562 117.991 10.9355 118.825 7.39057C119.057 6.40479 117.576 5.98879 117.304 6.97045Z" fill="#4D4D4D"/>
<path d="M120.314 11.265C119.553 13.378 118.731 15.5198 117.321 17.3046C116.746 18.0336 115.994 18.7009 115.021 18.7352C114.115 18.7682 113.326 18.3343 112.78 17.63C112.218 16.9078 110.95 17.873 111.501 18.6171C113.062 20.726 115.938 20.9457 117.86 19.1883C118.85 18.2835 119.57 17.0424 120.196 15.8726C120.896 14.5615 121.526 13.1446 121.872 11.6948C122.116 10.6719 120.664 10.2943 120.314 11.265Z" fill="#4D4D4D"/>
<path d="M139.886 53.0437C138.77 52.6607 137.687 53.6547 137.889 54.7929C137.988 55.353 138.422 55.7567 138.925 55.9063C138.942 55.9118 138.957 55.92 138.973 55.9255C139.481 56.093 140.055 55.964 140.442 55.5947C141.275 54.8025 140.973 53.4172 139.886 53.0437Z" fill="#4D4D4D"/>
<path d="M143.218 46.9918C142.465 46.3245 141.333 45.7246 140.297 45.8344C139.91 45.8756 139.639 46.1584 139.55 46.4742C139.429 46.595 139.359 46.7666 139.388 46.9959C139.512 47.994 140.244 48.848 141.102 49.3436C141.845 49.7734 142.965 50.107 143.711 49.5153C144.67 48.756 143.916 47.6096 143.217 46.9918H143.218Z" fill="#4D4D4D"/>
<path d="M121.109 48.7409C121.862 48.0737 122.995 47.4737 124.031 47.5835C124.418 47.6247 124.688 47.9075 124.777 48.2233C124.898 48.3441 124.968 48.5158 124.939 48.745C124.816 49.7432 124.083 50.5971 123.225 51.0928C122.483 51.5225 121.363 51.8561 120.616 51.2644C119.657 50.5052 120.412 49.3587 121.11 48.7409H121.109Z" fill="#4D4D4D"/>
<path d="M125.985 54.7929C125.115 54.0556 123.676 54.3796 123.405 55.5603C123.375 55.6908 123.366 55.8198 123.375 55.9475C123.373 55.964 123.369 55.9791 123.368 55.9969C123.311 57.1722 124.64 57.9671 125.666 57.422C126.64 56.9058 126.836 55.515 125.985 54.7942V54.7929Z" fill="#4D4D4D"/>
<path d="M134.611 63.9477C133.854 64.4131 132.957 64.5463 132.143 64.133C131.156 63.6333 130.924 62.4676 130.824 61.4599C130.692 60.1309 130.613 58.7964 130.508 57.466C130.401 56.0944 130.41 54.6418 130.126 53.2936C129.936 52.3984 128.641 52.6579 128.595 53.5009C128.549 54.3714 128.683 55.2748 128.75 56.1438C128.818 57.0253 128.885 57.9053 128.952 58.7868C129.067 60.2984 129.011 61.9885 129.54 63.4273C130.423 65.8368 133.525 66.964 135.563 65.1806C136.237 64.5902 135.365 63.4822 134.612 63.9463L134.611 63.9477Z" fill="#4D4D4D"/>
<path d="M136.045 72.508C135.126 71.1323 133.565 70.1671 131.986 69.7511C130.983 69.4861 130.567 71.006 131.558 71.3039C132.05 71.4508 132.529 71.654 132.977 71.9107C132.91 72.0082 132.854 72.1139 132.81 72.2279C132.287 73.6228 132.851 75.6438 134.586 75.7371C136.401 75.836 136.907 73.7999 136.045 72.5093V72.508Z" fill="#4D4D4D"/>
<path d="M64.0741 120.689C65.0142 120.17 65.8527 119.264 66.5636 118.469C67.2581 117.693 67.8907 116.855 68.4424 115.971C69.4731 114.321 70.9155 111.841 69.7696 109.925C68.7471 108.216 66.4648 107.94 64.8152 108.829C63.5882 109.491 62.7511 110.622 62.1692 111.88C62.1294 111.583 62.0923 111.287 62.0511 110.99C61.988 110.532 61.5447 110.363 61.1426 110.43C59.5657 110.247 57.8982 110.375 56.3295 110.536C55.9068 110.578 55.6502 110.836 55.572 111.139C55.5034 111.248 55.4594 111.382 55.4512 111.538C55.3181 113.905 55.1781 116.271 55.0312 118.636C54.0541 117.69 53.2993 116.555 52.9383 115.197C52.6927 114.273 52.6433 113.301 52.7723 112.355C52.9191 111.283 53.3583 110.394 53.8208 109.436C54.179 108.693 53.1799 107.738 52.587 108.485C49.6747 112.15 50.9648 118.29 54.9022 120.687C54.3121 129.85 52.8903 148.2 52.6487 151.627C52.624 151.97 67.2896 152.102 67.2416 151.636C66.5897 145.473 64.1303 127.591 63.3632 121.392C63.333 121.149 63.3028 120.904 63.2739 120.661C63.4894 120.812 63.7804 120.856 64.0754 120.693L64.0741 120.689ZM63.4016 136.741C63.4771 137.597 61.9509 137.555 61.8302 136.741C61.2936 133.108 60.9134 129.458 60.4866 125.815C60.0598 122.174 59.6137 118.533 59.2308 114.889C59.1402 114.026 60.7226 114.049 60.8338 114.889C61.3128 118.528 61.7272 122.173 62.1623 125.815C62.596 129.455 63.0777 133.093 63.4016 136.741ZM63.1395 119.478C63.1395 119.478 63.1326 119.486 63.1285 119.49C62.9459 118.002 62.7634 116.512 62.5768 115.024C62.7181 114.935 62.8375 114.797 62.9144 114.608C63.5278 113.083 63.9931 111.31 65.4904 110.396C66.5183 109.768 68.4054 109.891 68.5124 111.408C68.5701 112.215 68.1213 113.059 67.7713 113.759C67.4035 114.495 66.9822 115.205 66.5128 115.881C66.0407 116.56 65.511 117.197 64.9373 117.793C64.3691 118.385 63.6939 118.878 63.1381 119.475L63.1395 119.478Z" fill="#4D4D4D"/>
<path d="M195.054 205.773C194.03 197.424 192.863 189.1 191.999 180.73C191.136 172.362 190.451 163.978 189.942 155.581C189.658 150.885 189.452 146.187 189.224 141.489C189.219 141.375 189.194 141.275 189.156 141.185C192.323 135.849 194.479 129.929 194.923 123.687C195.191 119.906 194.778 116.033 193.521 112.447C192.238 108.788 190.112 105.533 187.577 102.622C182.38 96.6567 175.652 92.3553 170.05 86.8168C164.686 81.5131 159.991 74.2187 161.143 66.3187C161.25 65.587 161.416 64.8675 161.629 64.1605C162.627 64.0877 163.59 63.7129 164.469 63.1513C164.543 63.1157 164.617 63.0813 164.688 63.0443C164.798 62.9866 164.88 62.9125 164.941 62.826C166.1 61.9665 167.079 60.7954 167.741 59.6064C168.722 57.8408 169.416 55.8953 170.105 54.002C170.853 51.9467 171.52 49.8585 172.058 47.7373C173.129 43.5114 173.698 39.1097 173.448 34.7479C173.218 30.7265 172.381 26.4017 170.214 22.9419C168.417 20.0738 165.196 17.7165 161.762 17.8675C161.648 14.0082 159.717 10.2545 156.717 7.70222C152.798 4.36734 147.705 3.08501 142.656 3.27173C142.103 3.18112 141.543 3.12483 140.981 3.09737C140.941 3.09325 140.9 3.0905 140.856 3.0905H140.848C139.404 3.03284 137.95 3.17837 136.547 3.49552C135.784 3.66851 135.033 3.89779 134.303 4.17925C132.319 4.77373 128.295 6.86885 128.233 6.97594C125.944 4.3138 122.861 2.2736 119.606 1.14641C112.082 -1.45669 103.627 0.663136 96.9584 4.56916C89.8617 8.72644 84.1525 14.8841 78.6834 20.9292C73.0456 27.161 67.7069 33.7566 63.5745 41.1019C59.4957 48.3524 56.5807 56.3951 55.9453 64.7316C55.8698 65.7133 55.8328 66.6949 55.8314 67.6779C55.8136 67.7548 55.804 67.8386 55.8081 67.9333C56.0002 72.4174 57.3109 76.9234 59.0813 81.023C60.8572 85.1391 63.3028 88.9613 66.2754 92.3141C67.9649 94.2197 69.83 95.9524 71.8735 97.4736C72.5954 98.0118 73.5479 96.7899 72.8424 96.2174C66.1108 90.7448 61.0973 83.4984 58.756 75.1056C58.1027 72.7633 57.7322 70.3936 57.422 67.9869C57.4248 67.9649 57.4261 67.9416 57.4275 67.9182C57.6155 59.8178 59.8718 51.9797 63.5128 44.7704C67.1332 37.6008 71.9847 31.137 77.2355 25.0892C79.8651 22.0619 82.5783 19.099 85.3808 16.2323C88.1297 13.4192 91.0132 10.7062 94.1999 8.39144C100.308 3.95409 107.934 0.799058 115.61 1.91664C122.731 2.95321 129.394 8.17314 130.828 15.3125C131.417 18.3096 131.184 19.5082 130.854 19.8459C130.363 20.3498 129.255 20.4912 128.754 20.1274C128.078 19.6359 127.558 18.5457 127.193 17.8222C126.39 16.231 125.87 14.2402 124.95 12.7039C124.928 12.6586 124.902 12.6174 124.875 12.5789C124.805 12.4622 124.735 12.3455 124.662 12.2316C124.518 12.005 124.291 11.8925 124.057 11.8705C123.67 11.7099 123.178 11.8279 123.029 12.3647C122.426 14.5313 121.426 16.5563 119.926 18.2451C118.629 19.7059 117.387 21.0912 115.711 21.9561C110.724 24.6705 105.875 22.3831 101.056 21.2834C101.05 21.282 99.7307 20.98 99.7252 21.7831C99.4892 25.048 99.2037 28.295 98.6808 31.5311C98.1319 34.9305 97.3935 38.2969 96.4795 41.6167C94.672 48.189 92.1605 54.5595 88.9792 60.5867C87.1663 64.0204 85.1145 67.3045 82.9708 70.5378C82.4013 71.3959 83.7421 72.1331 84.3295 71.3327C85.2559 70.0724 86.1356 68.7777 86.9783 67.4569C90.0799 69.839 93.3312 72.0453 96.5055 74.3299C98.1332 75.5024 99.7623 76.6749 101.393 77.8432C103.016 79.0061 104.606 80.2692 106.294 81.3333C106.327 81.3539 106.361 81.3717 106.395 81.3868C106.204 82.1639 105.931 82.9231 105.649 83.6329C103.808 88.2378 101.382 92.6573 98.6589 96.7967C97.0874 99.187 95.3664 101.462 93.6111 103.719C93.0086 104.493 94.0407 105.603 94.72 104.828C98.4722 100.544 101.607 95.6435 104.229 90.5979C105.551 88.0538 106.893 85.404 107.762 82.665C108.216 81.2303 108.444 79.6418 108.214 78.1453C109.174 78.84 110.151 79.51 111.111 80.1786C113.191 81.6271 115.316 83.0151 117.479 84.3373C119.606 85.6374 121.776 86.8717 123.977 88.0415C126.196 89.2208 128.447 90.4112 130.78 91.353C131.623 91.6935 132.195 90.3041 131.398 89.8881C129.187 88.7362 126.917 87.7051 124.715 86.5326C122.551 85.3793 120.423 84.1615 118.326 82.8888C116.23 81.6161 114.171 80.283 112.151 78.8908C110.29 77.6085 108.521 76.1957 106.679 74.89C105.02 73.178 102.131 72.7263 100.341 74.5523C100.245 74.6511 100.181 74.7555 100.144 74.8626C99.2517 74.2255 98.361 73.5885 97.4676 72.9528C94.2603 70.6682 91.1037 68.282 87.8264 66.0963C90.353 61.9445 92.5009 57.5442 94.3426 53.0698C96.9941 46.6266 98.932 39.895 100.105 33.0276C100.678 29.6762 101.125 26.2658 101.294 22.8609C102.62 23.3538 104.043 23.6751 105.403 23.9359C107.256 24.2915 109.144 24.4865 111.031 24.5057C112.228 24.5181 113.739 24.367 114.862 23.7355C113.095 28.9719 112.474 35.2641 113.565 40.6886C113.55 40.8547 113.596 41.0277 113.731 41.1856C113.788 41.2694 113.861 41.3339 113.942 41.3792C115.155 42.3897 116.596 42.9183 118.107 43.2052C118.943 50.7948 120.237 58.3433 121.899 65.7915C122.743 69.5767 123.434 73.7354 125.584 77.0428C127.378 79.8024 130.249 81.8412 133.455 82.5991C134.989 82.9629 136.616 83.0302 138.202 82.8092C137.899 85.6196 136.772 88.3119 134.812 90.3837C132.74 92.5749 129.88 93.9877 126.878 94.2925C125.853 94.3968 125.839 96.0128 126.878 95.9126C128.182 95.7862 129.443 95.4815 130.635 95.0256C130.054 96.9546 130.331 99.1404 131.422 100.847C133.134 103.526 136.459 104.429 139.474 104.253C142.557 104.073 145.665 103.177 148.51 102.007C151.251 100.881 153.845 99.4342 156.216 97.6562C158.872 95.664 161.264 93.3383 163.184 90.624C163.693 89.9045 162.512 88.9778 161.953 89.6739C158.629 93.8188 154.624 97.2429 149.835 99.5811C147.47 100.736 144.963 101.595 142.389 102.146C139.612 102.74 136.279 103.052 133.902 101.152C131.841 99.5028 131.436 96.4205 132.78 94.2032C132.836 94.1113 132.87 94.0206 132.888 93.9328C136.876 91.5548 139.658 87.3316 139.839 82.4769C141.617 81.9936 143.284 81.1328 144.644 79.904C145.307 79.304 144.416 78.1041 143.673 78.645C140.981 80.5987 137.76 81.7067 134.416 81.0738C131.351 80.4944 128.568 78.6437 126.915 75.987C124.998 72.9047 124.37 69.0948 123.586 65.6048C122.73 61.7921 121.976 57.9561 121.327 54.1023C120.73 50.5601 120.235 47.0041 119.804 43.4386C120.434 43.4963 121.066 43.5292 121.691 43.5526C124.477 43.6569 127.271 43.44 130.016 42.9594C135.46 42.0052 140.733 39.9197 145.359 36.8924C147.12 35.7391 148.804 34.4554 150.356 33.0303C150.275 34.2742 150.337 35.5483 150.423 36.7551C150.555 38.6045 150.846 40.447 151.295 42.2469C152.188 45.822 153.713 49.3285 155.85 52.3394C156.196 52.8254 156.796 52.7911 157.158 52.5069C157.394 52.3916 157.565 52.1568 157.554 51.804C157.489 49.8214 158.526 47.5698 160.711 47.2829C161.602 47.1662 162.578 47.4847 163.166 48.1753C163.851 48.9784 164.035 50.166 164.142 51.1793C164.392 53.5737 164.079 56.0244 163.599 58.3721C163.21 60.2764 162.333 62.296 160.058 61.9994C159.969 61.9885 159.883 62.0008 159.803 62.0296C159.658 62.0132 159.514 61.9981 159.367 61.9857C159.196 61.972 159.046 62.0283 158.926 62.123C158.473 62.4141 158.337 63.2255 158.915 63.5454C159.267 63.7403 159.62 63.8859 159.974 63.9875C157.926 71.1158 160.955 78.6643 165.427 84.2508C170.387 90.4469 177.106 94.8636 182.819 100.292C185.559 102.895 188.088 105.746 189.964 109.043C191.846 112.352 192.906 116.048 193.122 119.847C193.562 127.585 190.882 135.186 186.74 141.628C182.387 148.4 176.54 153.944 170.747 159.459C170.408 159.782 170.072 160.106 169.735 160.431C170.496 157.268 169.01 153.616 167.96 150.716C165.228 143.162 161.117 135.824 154.288 131.274C151.165 129.193 147.563 127.785 143.821 127.472C146.417 124.648 149.103 121.907 151.875 119.255C153.627 117.582 155.405 115.933 157.21 114.317C157.98 113.628 156.852 112.52 156.081 113.187C149.607 118.798 143.605 124.956 138.074 131.498C136.495 133.367 134.912 135.25 133.467 137.226C133.395 137.325 133.356 137.429 133.344 137.532C129.696 134.841 125.922 132.311 122.127 129.846C118.872 127.732 115.571 125.69 112.228 123.72C112.844 122.18 113.363 120.594 113.897 119.025C114.236 118.029 112.693 117.628 112.335 118.594C111.809 120.012 111.258 121.436 110.794 122.879C109.447 122.096 108.094 121.324 106.734 120.567C103.766 118.911 100.772 117.288 97.7201 115.793C96.7965 115.34 95.9813 116.696 96.9063 117.186C102.165 119.973 107.401 122.787 112.513 125.839C117.623 128.888 122.631 132.106 127.526 135.488C130.322 137.419 133.061 139.431 135.835 141.394C136.558 141.906 137.495 140.71 136.79 140.156C136.02 139.549 135.239 138.953 134.454 138.363C134.542 138.324 134.624 138.262 134.697 138.176C137.247 135.117 139.735 132.022 142.387 129.051C149.353 129.246 155.564 133.302 159.767 138.684C162.04 141.593 163.804 144.899 165.222 148.3C165.633 149.284 166.014 150.28 166.375 151.283C164.423 155.13 161.824 158.608 158.709 161.549C158.577 161.668 158.459 161.807 158.216 162.006C156.289 163.759 154.176 165.311 151.9 166.621C145.151 170.507 137.262 172.011 129.544 171.035C125.017 170.462 120.77 168.971 116.725 166.897C115.825 166.434 115.045 167.741 115.928 168.261C123.078 172.484 131.991 173.786 140.129 172.537C147.186 171.453 153.806 168.212 159.125 163.474C160.56 164.384 162.192 165.068 163.91 165.021C166.183 164.961 169.014 163.343 169.747 162.693C175.779 157.335 181.749 151.754 186.51 145.205C186.905 144.662 187.289 144.11 187.664 143.551C188.158 159.661 189.565 175.792 191.494 191.785C192.067 196.527 192.631 201.282 193.411 205.995C193.564 206.918 195.174 206.713 195.058 205.773H195.054ZM133.266 38.01C130.64 39.1646 127.899 39.8621 125.035 40.0543C122.284 40.2396 119.193 40.0639 116.587 39.0919C115.64 38.739 116.003 37.3619 117.007 37.5706C118.32 37.8439 119.596 38.1761 120.937 38.3134C122.219 38.4438 123.509 38.4713 124.795 38.393C127.405 38.2351 130.035 37.6256 132.441 36.5972C133.395 36.1895 134.232 37.5857 133.266 38.01ZM140.541 34.7479C139.865 35.1968 139.182 35.6279 138.481 36.0329C137.593 36.5464 136.849 35.2311 137.685 34.671C138.359 34.2193 139.046 33.7964 139.746 33.3886C140.63 32.8738 141.378 34.1918 140.541 34.7479ZM145.855 6.18512C145.341 6.30731 144.801 6.36772 144.275 6.39381C143.388 6.43912 143.196 5.01812 144.065 4.84375C144.581 4.74078 145.12 4.66115 145.647 4.65291C146.524 4.63918 146.71 5.98055 145.855 6.18375V6.18512ZM155.532 12.6544C154.865 11.5231 154.132 10.4975 153.145 9.62023C152.166 8.74841 151.037 8.14294 149.844 7.62122C149.017 7.25876 149.618 5.90092 150.454 6.17688C153.159 7.06792 155.709 9.25228 156.908 11.8513C157.331 12.767 156.063 13.5551 155.533 12.6558L155.532 12.6544ZM171.011 40.8561C170.929 41.8611 169.452 41.8872 169.427 40.8561C169.411 40.1751 169.435 39.4914 169.503 38.8132C169.602 37.8329 171.012 37.7985 171.054 38.8132C171.082 39.4941 171.066 40.1765 171.01 40.8561H171.011ZM162.486 22.5259C161.691 22.1154 162.259 20.7438 163.098 21.072C168.316 23.1108 170.152 29.3083 171.124 34.2783C171.316 35.2586 169.872 35.6801 169.612 34.6957C168.947 32.1722 168.417 29.5774 167.186 27.2516C166.091 25.1839 164.563 23.5996 162.486 22.5259Z" fill="#4D4D4D"/>
<path d="M114.052 204.408C112.726 204.949 111.188 204.894 110.002 204.028C108.783 203.138 108.529 201.85 108.393 200.453V200.45C112.095 187.951 113.338 174.643 112.29 161.66C111.993 157.99 111.52 154.333 110.84 150.715C110.751 150.243 110.329 150.136 109.981 150.273C106.568 150.677 103.169 151.187 99.7541 151.584C96.3601 151.98 92.9606 152.323 89.5571 152.615C82.6593 153.208 75.7451 153.591 68.8241 153.764C55.1384 154.106 41.3909 153.687 27.767 152.315C20.8116 151.613 13.8233 150.392 7.60356 147.042C6.93794 146.684 6.33957 147.515 6.706 148.014C5.97862 151.478 5.72335 155.107 5.54906 158.63C5.36378 162.36 5.39809 166.1 5.6465 169.826C6.13782 177.177 7.45122 184.477 9.57983 191.531C10.756 195.43 12.1792 199.26 13.8919 202.954C13.8947 202.972 13.8961 202.989 13.8988 203.006C14.3448 205.41 13.4212 207.776 11.5506 209.325C10.9769 209.8 11.7414 210.807 12.3548 210.367C14.747 208.642 15.9368 205.52 15.2204 202.643C15.1848 202.501 15.1216 202.393 15.0407 202.314C10.2551 191.119 7.42102 179.235 6.92284 167.115C13.5873 168.083 20.2819 168.838 26.9944 169.375C27.0685 170.595 27.159 171.813 27.2661 173.031C27.5076 175.788 27.8329 178.539 28.2405 181.277C24.2454 180.761 20.2627 180.163 16.2813 179.521C15.4414 179.385 15.0667 180.658 15.9245 180.817C20.0801 181.593 24.266 182.238 28.4711 182.772C28.9775 185.942 29.5937 189.096 30.3224 192.222C30.8453 194.465 31.43 196.694 32.0764 198.903C28.9967 198.463 25.9252 197.959 22.8593 197.413C22.0276 197.265 21.6612 198.52 22.5066 198.695C25.8237 199.383 29.171 199.956 32.5348 200.428C32.7983 201.285 33.07 202.14 33.3514 202.991C33.3527 203.002 33.3514 203.012 33.3555 203.023C33.8001 205.255 33.2018 207.322 31.4163 208.796C30.8398 209.273 31.5988 210.262 32.2205 209.838C34.3271 208.401 35.5802 205.34 34.6771 202.862C34.6785 202.792 34.6689 202.717 34.6442 202.636C34.4369 201.97 34.2366 201.303 34.0389 200.634C40.3109 201.456 46.6363 201.93 52.937 202.124C53.3831 202.137 53.8291 202.147 54.2765 202.158C54.5935 203.822 54.9284 205.482 55.2839 207.136C55.4225 209.69 54.3904 212.212 52.3044 213.761C51.6278 214.263 52.2577 215.411 52.9796 214.917C55.4897 213.199 57.0378 210.129 56.6631 207.066C56.6522 206.976 56.6274 206.895 56.5918 206.823C56.2939 205.279 56.0057 203.733 55.7258 202.185C61.5036 202.279 67.2842 202.106 73.0456 201.672C72.988 203.17 72.9276 204.669 72.8754 206.167C72.8754 206.189 72.8754 206.211 72.8754 206.233C72.5666 208.749 73.8732 211.427 75.973 212.811C76.5947 213.22 77.3728 212.245 76.7799 211.764C75.0246 210.339 74.2355 208.528 74.2135 206.311C74.2259 206.266 74.2341 206.218 74.2369 206.167C74.3439 204.632 74.4304 203.096 74.499 201.557C77.5375 201.304 80.5705 200.98 83.594 200.58C85.7294 200.299 87.8649 199.987 89.9935 199.637C89.741 200.866 89.4775 202.092 89.2085 203.318C88.8448 204.19 88.9093 205.318 89.1385 206.182C89.4322 207.286 90.0704 208.21 91.0009 208.865C91.6143 209.297 92.3733 208.317 91.8065 207.82C91.1889 207.278 90.714 206.606 90.4986 205.806C90.2666 204.944 90.4601 204.263 90.6125 203.418C90.6234 203.354 90.6248 203.293 90.6207 203.234C90.935 201.955 91.23 200.67 91.5086 199.379C94.5513 198.852 97.5802 198.242 100.582 197.526C101.455 197.317 101.083 196.003 100.212 196.186C97.4278 196.773 94.6364 197.314 91.8394 197.804C92.8413 192.878 93.5824 187.889 94.0847 182.875C99.6649 182.191 105.222 181.323 110.744 180.264C110.458 183.452 110.031 186.63 109.458 189.788C108.813 193.348 107.99 196.879 107.035 200.369C107.003 200.487 107.002 200.594 107.022 200.69C106.777 202.368 107.799 204.217 109.091 205.193C110.674 206.391 112.818 206.512 114.573 205.633C115.243 205.298 114.767 204.114 114.056 204.404L114.052 204.408ZM26.7638 163.158C26.7857 164.755 26.8379 166.35 26.9189 167.944C20.2188 167.416 13.5337 166.674 6.87892 165.727C6.82814 163.817 6.83501 161.903 6.90363 159.984C6.97636 157.933 7.11772 155.886 7.31947 153.844C7.4869 152.143 7.74629 150.456 7.95627 148.761C13.155 151.447 18.9836 152.647 24.7532 153.373C25.4998 153.466 26.2491 153.556 26.9971 153.639C26.7171 156.794 26.7212 159.996 26.7652 163.158H26.7638ZM71.9422 155.088C72.2839 159.468 72.5735 163.847 72.7999 168.228C70.1279 168.414 67.4517 168.565 64.77 168.673C60.2986 168.853 55.8246 168.938 51.3505 168.93C51.286 168.091 51.2256 167.252 51.1694 166.412C50.9168 162.658 50.8359 158.894 50.5875 155.141C57.7048 155.346 64.8276 155.328 71.9436 155.088H71.9422ZM72.874 169.689C73.0909 174.175 73.2391 178.66 73.3022 183.151C66.4759 183.445 59.6371 183.479 52.808 183.252C52.2714 178.972 51.8199 174.681 51.4686 170.376C58.6092 170.389 65.7499 170.16 72.8754 169.69L72.874 169.689ZM28.213 164.199C28.1334 160.721 28.2721 157.258 28.3448 153.785C33.9099 154.364 39.5149 154.69 45.0965 154.941C46.4771 155.003 47.8591 155.054 49.2411 155.099C49.2164 158.509 49.458 161.94 49.6721 165.342C49.7476 166.537 49.8313 167.73 49.9205 168.924C42.7263 168.879 35.5335 168.589 28.3585 168.055C28.2913 166.772 28.2419 165.487 28.213 164.199ZM28.4422 169.486C33.5325 169.87 38.6324 170.131 43.7364 170.266C45.8334 170.321 47.9319 170.354 50.0303 170.367C50.1661 172.077 50.3171 173.786 50.4832 175.493C50.7329 178.064 51.0157 180.633 51.3313 183.198C46.5979 183.014 41.8685 182.706 37.1516 182.271C34.6744 182.042 32.2054 181.77 29.7392 181.465C29.1312 177.496 28.6961 173.5 28.4422 169.485V169.486ZM39.8333 199.85C37.7486 199.644 35.6707 199.396 33.5984 199.117C32.086 193.798 30.87 188.406 29.9766 182.961C37.131 183.822 44.332 184.356 51.5138 184.632C51.9942 188.39 52.5404 192.14 53.1594 195.877C53.427 197.491 53.7083 199.104 54.0048 200.715C49.2727 200.602 44.5447 200.317 39.8333 199.851V199.85ZM73.2679 194.774C73.2295 196.588 73.1691 198.402 73.1019 200.214C72.1137 200.291 71.1242 200.362 70.1347 200.421C65.2531 200.715 60.359 200.822 55.4691 200.742C54.5235 195.406 53.6891 190.055 52.9919 184.686C53.0098 184.686 53.029 184.687 53.0468 184.687C59.8032 184.912 66.5678 184.878 73.3214 184.587C73.3558 187.979 73.3407 191.375 73.2693 194.773L73.2679 194.774ZM74.1518 166.28C73.9322 162.529 73.6632 158.781 73.2871 155.043C77.8641 154.871 82.4384 154.607 87.0058 154.25C89.0136 154.094 91.0214 153.918 93.0265 153.726C93.242 157.878 93.4204 162.014 93.4451 166.159C87.062 166.973 80.6693 167.652 74.2533 168.127C74.2204 167.512 74.1874 166.895 74.1518 166.28ZM91.3165 192.562C91.0146 194.405 90.6756 196.241 90.3119 198.072C85.0899 198.949 79.8432 199.64 74.5621 200.094C74.7419 195.428 74.7776 190.749 74.7625 186.086C74.7611 185.564 74.757 185.044 74.7529 184.522C80.0298 184.267 85.2985 183.857 90.5507 183.288C91.2314 183.214 91.9121 183.136 92.5928 183.056C92.2607 186.236 91.8366 189.406 91.3193 192.561L91.3165 192.562ZM93.3353 172.865C93.2146 175.781 93.0142 178.693 92.737 181.598C86.756 182.293 80.7531 182.793 74.7378 183.084C74.6856 178.584 74.5484 174.085 74.3274 169.59C76.7141 169.421 79.0993 169.226 81.4818 169.004C85.4728 168.632 89.4665 168.202 93.4465 167.676C93.441 169.404 93.4067 171.132 93.3353 172.865ZM94.2233 181.42C94.6446 176.779 94.8628 172.122 94.8944 167.48C97.4031 167.133 99.9064 166.746 102.397 166.306C103.273 166.152 102.887 164.863 102.034 164.987C99.6553 165.331 97.2783 165.66 94.8985 165.971C94.8985 165.443 94.8958 164.915 94.8889 164.387C94.8505 160.792 94.7462 157.168 94.3907 153.589C95.8221 153.446 97.2536 153.296 98.6836 153.136C102.33 152.725 105.997 152.315 109.619 151.701C111.119 160.688 111.555 169.829 110.856 178.897C105.336 179.898 99.7898 180.743 94.2219 181.42H94.2233Z" fill="#4D4D4D"/>
<path d="M126.781 61.0549C126.299 59.3373 124.252 59.0064 122.723 59.0353C121.311 59.0627 119.201 59.4897 118.457 60.8503C118.076 61.5491 118.198 62.4058 118.754 62.9687C118.993 63.2104 119.279 63.3861 119.591 63.5179C120.561 64.5202 122.542 64.4035 123.762 64.1893C125.282 63.9202 127.322 62.9811 126.781 61.0549Z" fill="#FCE4D9"/>
</g>
<defs>
<clipPath id="clip0_5560_31012">
<rect width="228" height="238" fill="white" transform="translate(0.5)"/>
</clipPath>
</defs>
</svg>
